# xmcd
# 
# Track frame offsets:
#     150
#     14082
#     23501
#     31869
#     41911
#     52590
#     58125
#     68017
#     74465
#     79718
#     85565
#     89851
#     93448
#     97410
#     99960
#     102970
#     110407
#     116983
#     121383
#     127333
#     135289
#     140232
#     146482
#     154232
#     159335
#     165656
#     170175
#     177337
#     181418
#     186476
#     190509
#     196277
#     203555
#     206472
#     209946
#     214795
#     220104
#     225018
#     229177
#     233742
#     244113
#     257840
# 
# Disc length: 3572
# 
# Revision: 2
# Processed by: cddbd v1.5.2PL0 Copyright (c) Steve Scherf et al.
# Submitted via: BonkEnc v1.0.8
# 
DISCID=660df22a
DTITLE=シャンチー - 星のカービィ サウンドトラック
DYEAR=2001
DGENRE=
TTITLE0=シャンチー/カービィ★マーチ
TTITLE1=TVサントラ/カービィは最高
TTITLE2=TVサントラ/ワープスター
TTITLE3=TVサントラ/強いぞ星の戦士
TTITLE4=TVサントラ/特技は吸いこみ!
TTITLE5=TVサントラ/出現!超重魔獣
TTITLE6=TVサントラ/魔獣配信
TTITLE7=TVサントラ/時空を超えて
TTITLE8=TVサントラ/来るぞ来るぞ
TTITLE9=TVサントラ/出た!逃げろ!
TTITLE10=TVサントラ/ウィスピーウッズ
TTITLE11=TVサントラ/裏切り
TTITLE12=TVサントラ/森のなみだ
TTITLE13=TVサントラ/デデデが通る
TTITLE14=TVサントラ/デデデてんてこまい
TTITLE15=TVサントラ/ひとりあそび
TTITLE16=TVサントラ/ププビレッジ大通り
TTITLE17=TVサントラ/どいて、どいてェ!
TTITLE18=TVサントラ/独裁者
TTITLE19=TVサントラ/ポップスター
TTITLE20=TVサントラ/カービィの丘
TTITLE21=TVサントラ/ピンクの訪問者
TTITLE22=TVサントラ/戦士のひみつ
TTITLE23=TVサントラ/危うし!カービィ
TTITLE24=TVサントラ/いちばん星
TTITLE25=TVサントラ/ゆりかご
TTITLE26=TVサントラ/おめでとう
TTITLE27=TVサントラ/カービィおおあわて
TTITLE28=TVサントラ/くいしん坊
TTITLE29=TVサントラ/悪だくみ
TTITLE30=TVサントラ/ホーリィナイトメア社
TTITLE31=TVサントラ/カブーの谷
TTITLE32=TVサントラ/ニコニコカービィ
TTITLE33=TVサントラ/つかれちゃった
TTITLE34=TVサントラ/スィングカービィ
TTITLE35=TVサントラ/サンバカービィ
TTITLE36=TVサントラ/50’sカービィ
TTITLE37=TVサントラ/おねむりカービィ
TTITLE38=TVサントラ/おねむりカービィ2
TTITLE39=シャンチー/きほんはまる〜カービィえかきうた
TTITLE40=シャンチー/カービィ★マーチ(オリジナル・カラオケ)(ボーナス・トラック)
TTITLE41=シャンチー/きほんはまる〜カービィえかきうた(オリジナル・カラオケ)(ボーナス・トラック)
EXTD=
EXTT0=
EXTT1=
EXTT2=
EXTT3=
EXTT4=
EXTT5=
EXTT6=
EXTT7=
EXTT8=
EXTT9=
EXTT10=
EXTT11=
EXTT12=
EXTT13=
EXTT14=
EXTT15=
EXTT16=
EXTT17=
EXTT18=
EXTT19=
EXTT20=
EXTT21=
EXTT22=
EXTT23=
EXTT24=
EXTT25=
EXTT26=
EXTT27=
EXTT28=
EXTT29=
EXTT30=
EXTT31=
EXTT32=
EXTT33=
EXTT34=
EXTT35=
EXTT36=
EXTT37=
EXTT38=
EXTT39=
EXTT40=
EXTT41=
PLAYORDER=
